<svg width="253" height="266" viewBox="0 0 253 266" fill="none" xmlns="http://www.w3.org/2000/svg">
<g clip-path="url(#clip0)">
<path d="M126.522 -0.00209695L105.352 21.1328L126.522 42.2677L147.691 21.1328L126.522 -0.00209695Z" fill="url(#paint0_linear)"/>
<path d="M75.4191 51.0172L54.2498 72.1521L75.4191 93.287L96.5885 72.1521L75.4191 51.0172Z" fill="url(#paint1_linear)"/>
<path d="M177.627 51.1927L156.457 72.3276L177.627 93.4625L198.796 72.3276L177.627 51.1927Z" fill="url(#paint2_linear)"/>
<path d="M126.524 102.395L105.355 123.53L126.524 144.664L147.693 123.53L126.524 102.395Z" fill="url(#paint3_linear)"/>
<path d="M105.355 21.135H75.4169V51.0243H105.355V21.135Z" fill="url(#paint4_linear)"/>
<path d="M105.355 93.6401H75.4169V123.529H105.355V93.6401Z" fill="url(#paint5_linear)"/>
<path d="M177.625 93.4602H147.687V123.349H177.625V93.4602Z" fill="url(#paint6_linear)"/>
<path d="M177.625 21.3079H147.687V51.1971H177.625V21.3079Z" fill="url(#paint7_linear)"/>
<path d="M26.22 184.54V211H19.38V170.74H20.7L46.74 197.38H46.98V171.4H53.76V211.48H52.56C50.92 209.72 46.6 205.3 39.6 198.22C32.64 191.14 28.24 186.58 26.4 184.54H26.22ZM109.962 211H103.062L99.8822 203.44H82.5422L79.4222 211H72.7622L90.8222 170.86H92.0822L109.962 211ZM91.3622 182.98H91.1222L84.5222 198.58H97.9622L91.3622 182.98ZM155.832 171.46L138.792 211.54H137.472L120.072 171.46H127.332L137.952 197.92H138.252L148.752 171.46H155.832ZM203.363 211H196.463L193.283 203.44H175.943L172.823 211H166.163L184.223 170.86H185.483L203.363 211ZM184.763 182.98H184.523L177.923 198.58H191.363L184.763 182.98ZM245.439 171.34V176.8H233.379V211H226.479V176.8H214.359V171.34H245.439Z" fill="white"/>
<path d="M72.64 254H70.32V247.98C69.0933 248.38 67.8933 248.58 66.72 248.58C65.2933 248.58 64.1867 248.247 63.4 247.58C62.6267 246.913 62.24 245.973 62.24 244.76V240.8H64.54V244.36C64.54 246.04 65.4867 246.88 67.38 246.88C68.46 246.88 69.44 246.693 70.32 246.32V240.8H72.64V254ZM92.4845 254H90.1845L89.1245 251.48H83.3445L82.3045 254H80.0845L86.1045 240.62H86.5245L92.4845 254ZM86.2845 244.66H86.2045L84.0045 249.86H88.4845L86.2845 244.66ZM111.396 240.58V254H109.136V244.98H109.076L100.276 254.16H99.8561V240.8H102.136V249.78H102.216L110.976 240.58H111.396ZM105.856 239.68C105.003 239.68 104.323 239.4 103.816 238.84C103.309 238.267 103.036 237.54 102.996 236.66H104.216C104.243 237.22 104.403 237.667 104.696 238C105.003 238.32 105.396 238.48 105.876 238.48C106.383 238.48 106.776 238.313 107.056 237.98C107.336 237.647 107.496 237.207 107.536 236.66H108.736C108.696 237.5 108.429 238.213 107.936 238.8C107.456 239.387 106.763 239.68 105.856 239.68ZM131.328 254H128.808L125.048 247.56L121.208 254H118.748L123.048 247.18L119.048 240.82H121.508L125.048 246.82L128.548 240.82H131.048L127.008 247.18L131.328 254ZM149.858 254H147.558L146.498 251.48H140.718L139.678 254H137.458L143.478 240.62H143.898L149.858 254ZM143.658 244.66H143.578L141.378 249.86H145.858L143.658 244.66ZM167.95 240.8V254H165.67V248.02H159.53V254H157.23V240.8H159.53V246.18H165.67V240.8H167.95ZM187.781 254H185.481L184.421 251.48H178.641L177.601 254H175.381L181.401 240.62H181.821L187.781 254ZM181.581 244.66H181.501L179.301 249.86H183.781L181.581 244.66Z" fill="#A4876B"/>
</g>
<defs>
<linearGradient id="paint0_linear" x1="169.813" y1="-22.0872" x2="22.1802" y2="125.793" gradientUnits="userSpaceOnUse">
<stop stop-color="#BCA48D"/>
<stop offset="1" stop-color="#8F6D4C"/>
</linearGradient>
<linearGradient id="paint1_linear" x1="7394.66" y1="-896.856" x2="1018.39" y2="5490.11" gradientUnits="userSpaceOnUse">
<stop stop-color="#BCA48D"/>
<stop offset="1" stop-color="#8F6D4C"/>
</linearGradient>
<linearGradient id="paint2_linear" x1="9707.79" y1="1310.94" x2="3331.52" y2="7697.61" gradientUnits="userSpaceOnUse">
<stop stop-color="#BCA48D"/>
<stop offset="1" stop-color="#8F6D4C"/>
</linearGradient>
<linearGradient id="paint3_linear" x1="9660.58" y1="1365.72" x2="3284.01" y2="7752.69" gradientUnits="userSpaceOnUse">
<stop stop-color="#BCA48D"/>
<stop offset="1" stop-color="#8F6D4C"/>
</linearGradient>
<linearGradient id="paint4_linear" x1="6952.48" y1="-1389.04" x2="576.205" y2="4997.62" gradientUnits="userSpaceOnUse">
<stop stop-color="#BCA48D"/>
<stop offset="1" stop-color="#8F6D4C"/>
</linearGradient>
<linearGradient id="paint5_linear" x1="8520.63" y1="249.064" x2="2144.36" y2="6635.73" gradientUnits="userSpaceOnUse">
<stop stop-color="#BCA48D"/>
<stop offset="1" stop-color="#8F6D4C"/>
</linearGradient>
<linearGradient id="paint6_linear" x1="10150" y1="1803.43" x2="3773.7" y2="8190.09" gradientUnits="userSpaceOnUse">
<stop stop-color="#BCA48D"/>
<stop offset="1" stop-color="#8F6D4C"/>
</linearGradient>
<linearGradient id="paint7_linear" x1="8589.31" y1="172.847" x2="2213.03" y2="6559.81" gradientUnits="userSpaceOnUse">
<stop stop-color="#BCA48D"/>
<stop offset="1" stop-color="#8F6D4C"/>
</linearGradient>
<clipPath id="clip0">
<rect width="253" height="266" fill="white"/>
</clipPath>
</defs>
</svg>
