<svg width="448" height="576" viewBox="0 0 448 576" fill="none" xmlns="http://www.w3.org/2000/svg">
<path d="M287.755 1.5616e-05L203.468 84.15L287.755 168.3L372.042 84.15L287.755 1.5616e-05Z" fill="url(#paint0_linear)"/>
<path d="M84.2872 203.137L0 287.287L84.2872 371.437L168.574 287.287L84.2872 203.137Z" fill="url(#paint1_linear)"/>
<path d="M491.233 203.836L406.946 287.986L491.233 372.136L575.521 287.986L491.233 203.836Z" fill="url(#paint2_linear)"/>
<path d="M287.765 407.7L203.478 491.85L287.765 576L372.052 491.85L287.765 407.7Z" fill="url(#paint3_linear)"/>
<path d="M203.478 84.1587H84.2782V203.165H203.478V84.1587Z" fill="url(#paint4_linear)"/>
<path d="M203.478 372.843H84.2782V491.849H203.478V372.843Z" fill="url(#paint5_linear)"/>
<path d="M491.226 372.126H372.026V491.133H491.226V372.126Z" fill="url(#paint6_linear)"/>
<path d="M491.226 84.8476H372.026V203.854H491.226V84.8476Z" fill="url(#paint7_linear)"/>
<defs>
<linearGradient id="paint0_linear" x1="460.123" y1="-87.9331" x2="-127.687" y2="500.863" gradientUnits="userSpaceOnUse">
<stop stop-color="#BCA48D"/>
<stop offset="1" stop-color="#8F6D4C"/>
</linearGradient>
<linearGradient id="paint1_linear" x1="29226.3" y1="-3570.88" x2="3838.79" y2="21859.2" gradientUnits="userSpaceOnUse">
<stop stop-color="#BCA48D"/>
<stop offset="1" stop-color="#8F6D4C"/>
</linearGradient>
<linearGradient id="paint2_linear" x1="38436.2" y1="5219.61" x2="13048.7" y2="30648.5" gradientUnits="userSpaceOnUse">
<stop stop-color="#BCA48D"/>
<stop offset="1" stop-color="#8F6D4C"/>
</linearGradient>
<linearGradient id="paint3_linear" x1="38248.2" y1="5437.72" x2="12859.5" y2="30867.8" gradientUnits="userSpaceOnUse">
<stop stop-color="#BCA48D"/>
<stop offset="1" stop-color="#8F6D4C"/>
</linearGradient>
<linearGradient id="paint4_linear" x1="27465.7" y1="-5530.55" x2="2078.2" y2="19898.4" gradientUnits="userSpaceOnUse">
<stop stop-color="#BCA48D"/>
<stop offset="1" stop-color="#8F6D4C"/>
</linearGradient>
<linearGradient id="paint5_linear" x1="33709.4" y1="991.673" x2="8321.9" y2="26420.6" gradientUnits="userSpaceOnUse">
<stop stop-color="#BCA48D"/>
<stop offset="1" stop-color="#8F6D4C"/>
</linearGradient>
<linearGradient id="paint6_linear" x1="40196.8" y1="7180.47" x2="14809.2" y2="32609.4" gradientUnits="userSpaceOnUse">
<stop stop-color="#BCA48D"/>
<stop offset="1" stop-color="#8F6D4C"/>
</linearGradient>
<linearGradient id="paint7_linear" x1="33982.9" y1="688.21" x2="8595.35" y2="26118.3" gradientUnits="userSpaceOnUse">
<stop stop-color="#BCA48D"/>
<stop offset="1" stop-color="#8F6D4C"/>
</linearGradient>
</defs>
</svg>
