<svg width="31" height="32" viewBox="0 0 31 32" fill="none" xmlns="http://www.w3.org/2000/svg">
<path d="M29.6203 28.8658L22.3215 21.2748C24.1982 19.0439 25.2264 16.2371 25.2264 13.315C25.2264 6.48787 19.6719 0.93335 12.8447 0.93335C6.01759 0.93335 0.463074 6.48787 0.463074 13.315C0.463074 20.1421 6.01759 25.6967 12.8447 25.6967C15.4077 25.6967 17.8501 24.9236 19.9383 23.4561L27.2925 31.1048C27.5999 31.424 28.0133 31.6 28.4564 31.6C28.8757 31.6 29.2736 31.4401 29.5756 31.1494C30.2173 30.532 30.2377 29.5081 29.6203 28.8658ZM12.8447 4.16335C17.8911 4.16335 21.9964 8.26867 21.9964 13.315C21.9964 18.3613 17.8911 22.4667 12.8447 22.4667C7.7984 22.4667 3.69307 18.3613 3.69307 13.315C3.69307 8.26867 7.7984 4.16335 12.8447 4.16335Z" fill="white"/>
</svg>
